<svg id="svg" fill="#c54444" stroke="#c54444" width="209" height="209" version="1.1" viewBox="143 143 514 514" xmlns="http://www.w3.org/2000/svg">
    <g id="IconSvg_bgCarrier" stroke-width="0"></g>
    <g id="IconSvg_tracerCarrier" stroke-linecap="round" stroke-linejoin="round" stroke="#CCCCCC" stroke-width="0">
      <path xmlns="http://www.w3.org/2000/svg" d="m400 154.39c-135.43 0-245.61 110.18-245.61 245.61 0 54.035 17.578 104.02 47.258 144.61 0.17187 0.43359 0.41797 0.82812 0.78516 1.1133 44.781 60.531 116.65 99.883 197.57 99.883 80.906 0 152.77-39.344 197.55-99.875 0.38281-0.28906 0.63672-0.69531 0.80469-1.1367 29.676-40.598 47.246-90.574 47.246-144.59 0-135.43-110.18-245.61-245.61-245.61zm240.57 245.61c0 5.3047-0.22266 10.555-0.55859 15.773l-0.48047-0.48047c-51.387 51.535-103.3 103.51-155.07 155.29-6.0508-1.6992-11.211-3.9805-15.996-6.5586 57.652-57.461 115.18-115.3 171.88-172.86 0.11328 2.9375 0.22656 5.8789 0.22656 8.8438zm-130.96 178.75c10.195-0.003906 18.555-1.2148 25.734-3.1641-16.273 16.254-32.555 32.5-48.809 48.77-10.551 4.0898-21.426 7.4883-32.633 10.066 18.562-18.496 37.133-37.062 55.707-55.672zm-60.203 56.609c-9.9766 2.0977-20.176 3.5781-30.566 4.3867 21.387-21.367 42.855-42.824 64.34-64.316 6.5039 1.8125 14.012 3.0039 22.949 3.2539-18.918 18.945-37.828 37.852-56.723 56.676zm65.344-61.762c40.18-40.258 80.281-80.656 119.92-120.81-2.6484 11.773-6.1602 23.219-10.469 34.273-26.816 26.656-53.766 53.504-80.762 80.441-7.7031 3.2539-16.73 5.5742-28.691 6.0938zm-3.6367 0.089844c-0.52344 0.003906-1.0078 0.03125-1.543 0.03125-8.7227 0-15.961-0.90625-22.27-2.4141 50.934-50.93 101.98-102.06 152.54-152.75-0.76953 10.051-2.1523 19.93-4.125 29.598-41.168 41.711-82.848 83.691-124.6 125.54zm-293.41-17.07c1.1797-1.1758 2.3633-2.3633 3.5469-3.5352 4.5234 2.3828 8.7461 5.0039 13.023 7.7383 0.63672 0.40625 1.2695 0.8125 1.9102 1.2188l-7.0312 7.0312c-3.9727-4.0039-7.7656-8.1758-11.449-12.453zm70.203-266.2c1.3906 0 2.5195-1.1289 2.5195-2.5195 0-2.5859 0.1875-5.1406 0.53516-7.6562 20.137-20.293 40.305-40.543 60.496-60.699 10.395-3.2891 21.711-5.2344 33.539-5.7383-7.3438 7.418-14.695 14.812-22.043 22.227-48.902 49.375-99.031 99.996-149.44 150.06l-30.207 11.551c-1.3008 0.5-1.9492 1.957-1.4531 3.2539 0.38281 1.0039 1.3398 1.6172 2.3555 1.6172 0.30078 0 0.60547-0.054687 0.90234-0.16797l19.52-7.4609c-14.113 13.984-28.234 27.938-42.359 41.777-1.1641-7.543-1.9609-15.211-2.3984-22.965 41.484-42.684 83.473-85.445 125.66-128.01-0.023438 0.74219-0.14453 1.4648-0.14453 2.2109-0.003907 1.3945 1.125 2.5234 2.5156 2.5234zm3.9844-14.68c5.3203-23.781 25.871-43.742 54.023-54.219-18.031 18.012-36.043 36.105-54.023 54.219zm98.293-67.172c-10.969 0.046876-21.531 1.3672-31.473 3.7578 17.648-17.598 35.297-35.16 52.941-52.609 8.2969 0.39844 16.488 1.2109 24.555 2.4336-15.355 15.453-30.688 30.941-46.023 46.418zm-179.7 184.08 31.727-12.133c1.3008-0.5 1.9492-1.9531 1.4492-3.2539s-1.9453-1.9453-3.2539-1.4492l-21.105 8.0703c49.066-48.77 97.844-98.008 145.45-146.08 7.9766-8.0508 15.961-16.086 23.938-24.137 0.69922-0.007813 1.3789-0.078125 2.0859-0.078125 1.3906 0 2.5195-1.1289 2.5195-2.5195 0-0.57031-0.22656-1.0742-0.54297-1.4961 15.492-15.637 30.98-31.281 46.5-46.891 7.5977 1.2539 15.078 2.8477 22.426 4.7969-54.449 54.809-110.25 109.96-164.26 163.34-42.797 42.301-86.996 85.988-130.32 129.3-1.7344-6.6914-3.1992-13.48-4.3516-20.383 15.922-15.598 31.848-31.312 47.742-47.086zm88.703-60.035c54.332-53.699 110.48-109.2 165.26-164.35 5.8711 1.6367 11.668 3.4414 17.352 5.5-12.191 11.453-24.324 23.02-36.422 34.648-6.8359 1.7695-12.223 7.0117-14.223 13.75-24.094 23.352-48.012 46.945-71.727 70.66-30.961 11.766-55.555 36.551-67.016 67.66-19.105 19.426-38.102 38.82-56.906 58.043-20.57 21.035-41.145 42.059-61.766 63.023-2.207-6.0977-4.1719-12.309-5.8906-18.621 43.648-43.641 88.207-87.695 131.34-130.32zm100.8 206.04c-11.562 0-20.758 1.5586-28.555 3.9805 9.5781-9.375 19.145-18.715 28.676-28.016 10.867-0.011719 21.367-1.5703 31.328-4.4141-9.2266 9.4727-18.488 18.977-27.816 28.52-1.1953-0.035156-2.3828-0.070312-3.6328-0.070312zm-80.082-56.77c4.2227 4.125 8.7617 7.9258 13.578 11.371l-75.039 75.027c-6.0898-2.3789-11.336-5.3438-16.43-8.5078zm15.652 12.852c4.8008 3.2734 9.8594 6.1914 15.141 8.7227-23.27 23.328-46.477 46.621-69.617 69.887-7.8203-0.64453-14.309-2.1211-20.031-4.1055zm17.594 9.832c6.1875 2.7812 12.652 5.0391 19.355 6.6953-20.031 20.043-40.066 40.074-60.098 60.113-6.2422 1.4648-13.402 2.3438-21.996 2.3438-2.0859 0-4.0625-0.070313-5.9844-0.16797 22.848-22.965 45.754-45.965 68.723-68.984zm22.25 7.3672c6.8516 1.5078 13.934 2.3867 21.18 2.6016-10.227 9.9688-20.484 20-30.758 30.066-8.4648 3.3438-15.285 7.6992-21.984 11.984-8.1172 5.1953-15.992 10.203-26.531 13.457 19.363-19.375 38.73-38.738 58.094-58.109zm61.074-3.3008c34.777-11.707 62.16-39.656 73.043-74.805 10.629-10.848 21.312-21.699 32.039-32.543 3.918 4.4453 8.9219 8.418 14.793 11.766-42.984 43.023-86.098 86.152-129.13 129.18-5.8281-1.7031-12.465-2.8984-20.227-3.3516 9.8945-10.129 19.719-20.207 29.484-30.242zm68.137-155.38c14.445-14.383 28.883-28.758 43.324-43.105l6.8164 14.52c0.42969 0.91016 1.3398 1.4492 2.2773 1.4492 0.26172 0 0.51953-0.089844 0.77734-0.17188-15.516 15.516-31.031 31.035-46.543 46.551-1.6562-6.6641-3.8945-13.09-6.6523-19.242zm9.9336 49.492c6.0977-6.0117 12.184-12.051 18.27-18.094 1.1289 5.2305 3.5469 10.184 7.1094 14.699-9.6914 9.8008-19.348 19.613-28.969 29.418 2.1641-8.3398 3.3789-17.059 3.5898-26.023zm44.102 11.57c4.7188 2.4727 9.9219 4.5586 15.512 6.1719-43.352 43.203-86.262 86.77-128.41 129.72-4.7344-2.6836-9.8633-5.168-15.809-7.1445 42.895-42.887 85.859-85.863 128.7-128.75zm3.6758-3.6836c23.609-23.629 47.16-47.219 70.645-70.738 1.5781 6.1328 2.8555 12.383 3.9609 18.691-19.625 19.09-39.18 38.406-58.684 57.812-5.7578-1.4453-11.102-3.3945-15.922-5.7656zm-2.3633-1.1992c-6.0273-3.2539-11.133-7.1797-14.957-11.613 26.766-27.035 53.777-53.949 80.98-80.34 2.3477 6.418 4.3828 12.984 6.1914 19.637-24 24.051-48.082 48.164-72.215 72.316zm-16.504-13.625c-3.5938-4.7578-5.7617-10-6.2031-15.539 27.207-27.039 54.254-54.336 80.734-81.863 2.5352 5.4062 4.8672 10.918 6.9961 16.535-27.395 26.559-54.582 53.652-81.527 80.867zm-6.6211-18.684c-0.39844-0.86328-1.2656-1.4727-2.2734-1.4727-1.3867 0-2.5195 1.1289-2.5195 2.5195 0 1.1602 0.13672 2.2969 0.26563 3.4414-5.9062 5.8594-11.805 11.715-17.715 17.547-0.058594-8.1523-0.98438-16.102-2.6719-23.77 32.012-32.023 64.051-64.035 96.047-96.066 3.1602 5.4141 6.1602 10.934 8.8984 16.609-26.242 27.297-53.051 54.367-80.031 81.191zm22.578-52.789c0.17578-0.57422 0.16797-1.2148-0.10547-1.8047l-7.582-16.152c15.008-14.914 29.996-29.789 44.969-44.633 3.5078 4.9766 6.8516 10.078 9.9844 15.32-15.754 15.758-31.508 31.512-47.266 47.27zm-8.8086-20.34-7.7656-16.539 41.641-41.641c3.75 4.4805 7.3086 9.1094 10.73 13.855-14.84 14.703-29.73 29.543-44.605 44.324zm-3.793 3.7617c-14.438 14.359-28.859 28.652-43.312 43.039-2.5391-5.3164-5.4727-10.41-8.7656-15.234l44.324-44.332zm-53.566 25.727c-3.4453-4.8164-7.2461-9.3555-11.371-13.578l48.074-48.074 7.9688 16.977zm-13.148-15.352c-4.2617-4.1719-8.8477-7.9961-13.715-11.465 18.078-18.168 36.215-36.32 54.359-54.438l8.0664 17.184zm-32.305-22.266c21.199-21.16 42.473-42.234 63.762-63.219l8.0547 17.156c-18.465 18.43-36.914 36.895-55.309 55.379-5.207-3.5469-10.734-6.6562-16.508-9.3164zm76.746-47.41c10.496-10.469 20.992-20.945 31.484-31.348 4.5039 3.8477 8.8867 7.8359 13.098 11.996l-36.52 36.527zm-1.1367-2.4258-8.0391-17.125c8.2383-8.1055 16.465-16.254 24.703-24.305 4.8125 3.457 9.5117 7.0586 14.047 10.852-10.227 10.148-20.477 20.367-30.711 30.578zm-9.2227-19.492c-0.67578-1.043-1.9883-1.4805-3.1523-0.94141-1.2578 0.58984-1.7969 2.0898-1.2031 3.3516l0.60547 1.2852c-21.734 21.418-43.449 42.93-65.094 64.527-5.7227-2.4727-11.68-4.4883-17.828-6.0117 31.805-31.805 63.605-63.625 95.422-95.422 5.1484 3.0742 10.16 6.3516 15.055 9.793-7.9375 7.7539-15.867 15.609-23.805 23.418zm-89.57 61.539c-7.2734-1.5977-14.809-2.5-22.523-2.6367 13.113-13.184 26.27-26.379 39.441-39.562 2.6797 1.3242 5.6641 2.1406 8.8555 2.1406 11.113 0 20.152-9.0391 20.152-20.152 0-3.1758-0.80078-6.1406-2.1172-8.8164 11.945-11.906 23.895-23.832 35.836-35.645l-0.34375-0.34766c5.7227 2.75 11.289 5.7734 16.758 8.957-32.031 32.016-64.039 64.047-96.059 96.062zm16.637-72.164c2.543-1.9531 5.6914-3.1602 9.1406-3.1602 5.6172 0 10.473 3.1172 13.078 7.6797-6.8555 6.8359-13.703 13.637-20.551 20.488-4.5469-2.6094-7.6445-7.4492-7.6445-13.051 0-3.6719 1.3672-6.9961 3.5508-9.6172 0.80859-0.77734 1.6133-1.5586 2.4258-2.3398zm24.25 11.957c0 8.332-6.7812 15.113-15.113 15.113-1.7773 0-3.4609-0.36328-5.043-0.93359 6.4141-6.4141 12.82-12.781 19.242-19.184 0.55859 1.5781 0.91406 3.2383 0.91406 5.0039zm-26.277 16.754c-13.582 13.598-27.156 27.207-40.672 40.797-11.723 0.14453-23.023 2.0547-33.656 5.4883 21.664-21.637 43.5-43.172 65.488-64.508-0.035156 0.49609-0.14844 0.96484-0.14844 1.4688 0 6.9883 3.5781 13.137 8.9883 16.754zm27.945-27.875c-3.6133-5.4375-9.7734-9.0352-16.781-9.0352-0.25 0-0.48438 0.066407-0.73047 0.074219 11.547-11.082 23.129-22.105 34.758-33.031 5.9609 2.2383 11.801 4.7148 17.523 7.4062-11.582 11.465-23.176 23.035-34.77 34.586zm-229.86 203.54c17.594-17.984 35.383-36.133 53.234-54.305-3.3008 10.594-5.0898 21.84-5.1445 33.488-34.027 34.316-68.52 69.016-102.85 103.25-2.8672-6.0391-5.5-12.219-7.875-18.523 20.918-21.262 41.773-42.578 62.637-63.906zm48.152-17.293c0.19141 7.3945 1.0742 14.617 2.6094 21.602-32.012 32.016-64.043 64.016-96.047 96.043-2.9492-5.0625-5.7148-10.246-8.2969-15.531 33.953-33.84 68.066-68.164 101.73-102.11zm3.2812 24.496c1.5703 6.3594 3.6719 12.5 6.2617 18.395-30.207 30.492-61.078 61.621-91.691 92.316-3.5078-4.9766-6.8281-10.086-9.9609-15.332 31.785-31.805 63.594-63.582 95.391-95.379zm1.6836-27.488c0-60.422 49.156-109.58 109.58-109.58s109.58 49.156 109.58 109.58-49.156 109.58-109.58 109.58-109.58-49.156-109.58-109.58zm27.703 80.094-78.297 78.293c-0.94531-0.59766-1.8906-1.2031-2.8398-1.8086-3.8398-2.4531-7.7578-4.9336-11.992-7.2461 27.402-27.281 54.852-54.805 82.145-82.266 3.3398 4.6133 7.0078 8.9688 10.984 13.027zm-79.766 83.324c4.9766 3.125 10.195 6.168 16.238 8.7109l-10.637 10.637c-4.4727-3.8281-8.8164-7.8008-13.004-11.941zm18.773 9.7344c5.5977 2.1367 11.93 3.8203 19.406 4.7617-5.6836 5.7188-11.387 11.441-17.059 17.148-4.6719-3.375-9.1914-6.957-13.602-10.652zm22.605 5.1094c3.3359 0.31641 6.8672 0.49219 10.676 0.49219 5.793 0 10.973-0.40234 15.703-1.0977-9.6562 9.6562-19.312 19.32-28.969 28.973-5.3242-3.1797-10.52-6.543-15.566-10.117 6.0391-6.0742 12.113-12.164 18.156-18.25zm30.68-1.3398c15.766-3.0898 26.094-9.668 36.145-16.102 2.5078-1.6016 4.9883-3.1875 7.5273-4.7148-20.164 19.816-40.301 39.746-60.18 59.723-4.9531-2.4453-9.7852-5.082-14.535-7.8555 10.344-10.34 20.691-20.699 31.043-31.051zm51.793-25.258c9.3242-4.5391 20.398-7.7891 36.52-7.957-26.867 27.484-54.047 55.102-81.27 82.23-7.2188-2.6445-14.246-5.6797-21.125-8.9844 21.758-21.848 43.816-43.648 65.875-65.289zm40.023-7.9375c8.1133 0.14453 14.934 1.0898 20.887 2.5859-28.691 28.688-57.355 57.328-85.895 85.84-5.793-1.5703-11.516-3.3047-17.125-5.2969 27.52-27.434 54.988-55.355 82.133-83.129zm23.691 3.3398c6.1055 1.793 11.316 4.1719 16.168 6.8516-4.6133 4.707-9.3008 9.4609-13.891 14.148-22.633 23.07-45.262 46.145-67.953 69.156-6.8477-1.1484-13.578-2.6094-20.219-4.3164 28.551-28.516 57.203-57.148 85.895-85.84zm4.0742 22.762c4.7461-4.8398 9.582-9.7656 14.359-14.621 3.0781 1.793 6.0547 3.6875 9.0625 5.6133 2.9531 1.8906 5.9414 3.7891 9.0703 5.6133-24.781 24.688-49.57 49.316-74.328 73.789-8.3984-0.40625-16.672-1.2852-24.824-2.5391 22.254-22.59 44.457-45.219 66.66-67.855zm26.137-13.25c-2.6602-1.7031-5.3516-3.4219-8.1406-5.0781 42.336-43.141 85.438-86.906 128.99-130.29 7.8242 1.9961 16.281 3.1289 25.16 3.1289 1.3867 0 2.5195-1.1328 2.5195-2.5195s-1.1328-2.5195-2.5195-2.5195c-7.3594 0-14.41-0.8125-21.016-2.2422 18.727-18.625 37.504-37.152 56.336-55.48 1.375 8.5586 2.3438 17.254 2.793 26.086-57.414 58.293-115.7 116.89-174.09 175.09-3.4336-1.9648-6.7109-4.0547-10.031-6.1797zm126.68-312.68-41.121 41.125-7.9688-16.977 37.168-37.16c4.1328 4.1758 8.0938 8.5312 11.922 13.012zm-174.66-84.262c-18.129 17.938-36.266 35.969-54.402 54.059-37.484 10.637-64.816 36.859-67.973 68.164-42.352 42.707-84.488 85.617-126.13 128.45-0.14062-3.4219-0.22266-6.8594-0.22266-10.312 0-4.9375 0.19531-9.8281 0.49219-14.695 24.453-24.535 49.066-49.203 73.727-73.91 2.4336 0.75391 4.9688 1.2812 7.6484 1.2812 14.355 0 26.031-11.68 26.031-26.031 0-2.6953-0.52734-5.2461-1.2891-7.6875 39.68-39.727 79.441-79.492 119-119.01 4.9531-0.30859 9.9297-0.51562 14.965-0.51562 2.7344 0 5.4453 0.11719 8.1602 0.20703zm-232.15 152.77c30.926-31.035 62.215-62.676 92.488-93.289 13.945-14.098 27.887-28.199 41.84-42.285 11.613-4.6836 23.668-8.4727 36.094-11.309-9.543 10-19.074 20.016-28.598 30.039-21.34 22.449-43.012 45.211-64.988 67.883-3.4961-1.75-7.3867-2.8281-11.551-2.8281-14.355 0-26.031 11.68-26.031 26.031 0 4.3477 1.1758 8.3867 3.0625 11.992-17.773 17.875-35.762 35.543-53.973 52.801 2.7734-13.465 6.7305-26.488 11.656-39.035zm86.281-25.762c0 11.578-9.4219 20.992-20.992 20.992-1.2109 0-2.3828-0.16016-3.5352-0.35937 8.0547-8.0703 16.102-16.133 24.168-24.207 0.19922 1.168 0.35938 2.3516 0.35938 3.5742zm-27.359 19.902c-4.9375-1.5859-9.0547-4.9141-11.652-9.3008 9.4766-9.5625 18.879-19.184 28.238-28.824 4.5664 2.5703 8.0312 6.7617 9.668 11.824-8.7617 8.7773-17.508 17.535-26.254 26.301zm-14.629-19.902c0-11.574 9.4219-20.992 20.992-20.992 2.793 0 5.4453 0.57031 7.8828 1.5664-9.0039 9.2656-18.047 18.52-27.156 27.715-1.0977-2.543-1.7188-5.3477-1.7188-8.2891zm34.844-21.957c21.816-22.512 43.328-45.109 64.512-67.395 10.402-10.941 20.809-21.887 31.234-32.805 9.8789-2.0547 19.996-3.4453 30.277-4.2461-38.578 38.535-77.336 77.305-116.02 116.04-2.0938-4.8047-5.6133-8.8164-10-11.594zm-91.551 90.961c18.906-17.855 37.559-36.172 55.988-54.703 2.7773 4.1953 6.7227 7.5469 11.383 9.5742-23.664 23.711-47.277 47.375-70.75 70.926 0.66797-8.7344 1.7969-17.344 3.3789-25.797zm140.73-176.32c-12.543 12.664-25.086 25.34-37.613 38.016-28.934 29.258-58.785 59.434-88.359 89.141 24.074-56.844 69.414-102.54 125.97-127.16zm-99.547 360.97c30.496-30.57 61.227-61.574 91.332-91.957 2.7266 5.8281 5.918 11.402 9.5508 16.652-27.574 27.75-55.305 55.539-82.988 83.102-5.0195-2.5703-10.543-4.8555-17.004-6.5234-0.30078-0.41406-0.58984-0.84766-0.89062-1.2734zm14.105 11.582c-0.93359 0.93359-1.8672 1.8672-2.8008 2.7969-1.7383-2.0625-3.5117-4.1016-5.1797-6.2227 2.8477 1.0156 5.457 2.1875 7.9805 3.4258zm172.75 88.445c24.359-24.078 48.742-48.305 73.121-72.594 4.6953 2.6094 9.7891 4.9883 15.688 6.8672-21.887 21.891-43.746 43.746-65.52 65.496-4.9375 0.30859-9.9141 0.48047-14.93 0.48047-2.8047-0.003906-5.5742-0.14844-8.3594-0.25zm100.8-18.305c16.012-16.02 32.039-32.023 48.062-48.02 10.004-3.4609 17.699-8.3594 25.227-13.18 7.332-4.6914 14.379-9.1523 23.383-12.379-25.262 32.098-58.5 57.605-96.672 73.578zm101.89-80.445c-13.113 3.3945-22.379 9.2891-31.328 15.008-4.1797 2.6758-8.2969 5.3047-12.746 7.668 23.922-23.859 47.797-47.641 71.578-71.285-7.2969 17.32-16.555 33.613-27.504 48.609z"></path>

      </g>
     <g id="IconSvg_iconCarrier">
      <path xmlns="http://www.w3.org/2000/svg" d="m400 154.39c-135.43 0-245.61 110.18-245.61 245.61 0 54.035 17.578 104.02 47.258 144.61 0.17187 0.43359 0.41797 0.82812 0.78516 1.1133 44.781 60.531 116.65 99.883 197.57 99.883 80.906 0 152.77-39.344 197.55-99.875 0.38281-0.28906 0.63672-0.69531 0.80469-1.1367 29.676-40.598 47.246-90.574 47.246-144.59 0-135.43-110.18-245.61-245.61-245.61zm240.57 245.61c0 5.3047-0.22266 10.555-0.55859 15.773l-0.48047-0.48047c-51.387 51.535-103.3 103.51-155.07 155.29-6.0508-1.6992-11.211-3.9805-15.996-6.5586 57.652-57.461 115.18-115.3 171.88-172.86 0.11328 2.9375 0.22656 5.8789 0.22656 8.8438zm-130.96 178.75c10.195-0.003906 18.555-1.2148 25.734-3.1641-16.273 16.254-32.555 32.5-48.809 48.77-10.551 4.0898-21.426 7.4883-32.633 10.066 18.562-18.496 37.133-37.062 55.707-55.672zm-60.203 56.609c-9.9766 2.0977-20.176 3.5781-30.566 4.3867 21.387-21.367 42.855-42.824 64.34-64.316 6.5039 1.8125 14.012 3.0039 22.949 3.2539-18.918 18.945-37.828 37.852-56.723 56.676zm65.344-61.762c40.18-40.258 80.281-80.656 119.92-120.81-2.6484 11.773-6.1602 23.219-10.469 34.273-26.816 26.656-53.766 53.504-80.762 80.441-7.7031 3.2539-16.73 5.5742-28.691 6.0938zm-3.6367 0.089844c-0.52344 0.003906-1.0078 0.03125-1.543 0.03125-8.7227 0-15.961-0.90625-22.27-2.4141 50.934-50.93 101.98-102.06 152.54-152.75-0.76953 10.051-2.1523 19.93-4.125 29.598-41.168 41.711-82.848 83.691-124.6 125.54zm-293.41-17.07c1.1797-1.1758 2.3633-2.3633 3.5469-3.5352 4.5234 2.3828 8.7461 5.0039 13.023 7.7383 0.63672 0.40625 1.2695 0.8125 1.9102 1.2188l-7.0312 7.0312c-3.9727-4.0039-7.7656-8.1758-11.449-12.453zm70.203-266.2c1.3906 0 2.5195-1.1289 2.5195-2.5195 0-2.5859 0.1875-5.1406 0.53516-7.6562 20.137-20.293 40.305-40.543 60.496-60.699 10.395-3.2891 21.711-5.2344 33.539-5.7383-7.3438 7.418-14.695 14.812-22.043 22.227-48.902 49.375-99.031 99.996-149.44 150.06l-30.207 11.551c-1.3008 0.5-1.9492 1.957-1.4531 3.2539 0.38281 1.0039 1.3398 1.6172 2.3555 1.6172 0.30078 0 0.60547-0.054687 0.90234-0.16797l19.52-7.4609c-14.113 13.984-28.234 27.938-42.359 41.777-1.1641-7.543-1.9609-15.211-2.3984-22.965 41.484-42.684 83.473-85.445 125.66-128.01-0.023438 0.74219-0.14453 1.4648-0.14453 2.2109-0.003907 1.3945 1.125 2.5234 2.5156 2.5234zm3.9844-14.68c5.3203-23.781 25.871-43.742 54.023-54.219-18.031 18.012-36.043 36.105-54.023 54.219zm98.293-67.172c-10.969 0.046876-21.531 1.3672-31.473 3.7578 17.648-17.598 35.297-35.16 52.941-52.609 8.2969 0.39844 16.488 1.2109 24.555 2.4336-15.355 15.453-30.688 30.941-46.023 46.418zm-179.7 184.08 31.727-12.133c1.3008-0.5 1.9492-1.9531 1.4492-3.2539s-1.9453-1.9453-3.2539-1.4492l-21.105 8.0703c49.066-48.77 97.844-98.008 145.45-146.08 7.9766-8.0508 15.961-16.086 23.938-24.137 0.69922-0.007813 1.3789-0.078125 2.0859-0.078125 1.3906 0 2.5195-1.1289 2.5195-2.5195 0-0.57031-0.22656-1.0742-0.54297-1.4961 15.492-15.637 30.98-31.281 46.5-46.891 7.5977 1.2539 15.078 2.8477 22.426 4.7969-54.449 54.809-110.25 109.96-164.26 163.34-42.797 42.301-86.996 85.988-130.32 129.3-1.7344-6.6914-3.1992-13.48-4.3516-20.383 15.922-15.598 31.848-31.312 47.742-47.086zm88.703-60.035c54.332-53.699 110.48-109.2 165.26-164.35 5.8711 1.6367 11.668 3.4414 17.352 5.5-12.191 11.453-24.324 23.02-36.422 34.648-6.8359 1.7695-12.223 7.0117-14.223 13.75-24.094 23.352-48.012 46.945-71.727 70.66-30.961 11.766-55.555 36.551-67.016 67.66-19.105 19.426-38.102 38.82-56.906 58.043-20.57 21.035-41.145 42.059-61.766 63.023-2.207-6.0977-4.1719-12.309-5.8906-18.621 43.648-43.641 88.207-87.695 131.34-130.32zm100.8 206.04c-11.562 0-20.758 1.5586-28.555 3.9805 9.5781-9.375 19.145-18.715 28.676-28.016 10.867-0.011719 21.367-1.5703 31.328-4.4141-9.2266 9.4727-18.488 18.977-27.816 28.52-1.1953-0.035156-2.3828-0.070312-3.6328-0.070312zm-80.082-56.77c4.2227 4.125 8.7617 7.9258 13.578 11.371l-75.039 75.027c-6.0898-2.3789-11.336-5.3438-16.43-8.5078zm15.652 12.852c4.8008 3.2734 9.8594 6.1914 15.141 8.7227-23.27 23.328-46.477 46.621-69.617 69.887-7.8203-0.64453-14.309-2.1211-20.031-4.1055zm17.594 9.832c6.1875 2.7812 12.652 5.0391 19.355 6.6953-20.031 20.043-40.066 40.074-60.098 60.113-6.2422 1.4648-13.402 2.3438-21.996 2.3438-2.0859 0-4.0625-0.070313-5.9844-0.16797 22.848-22.965 45.754-45.965 68.723-68.984zm22.25 7.3672c6.8516 1.5078 13.934 2.3867 21.18 2.6016-10.227 9.9688-20.484 20-30.758 30.066-8.4648 3.3438-15.285 7.6992-21.984 11.984-8.1172 5.1953-15.992 10.203-26.531 13.457 19.363-19.375 38.73-38.738 58.094-58.109zm61.074-3.3008c34.777-11.707 62.16-39.656 73.043-74.805 10.629-10.848 21.312-21.699 32.039-32.543 3.918 4.4453 8.9219 8.418 14.793 11.766-42.984 43.023-86.098 86.152-129.13 129.18-5.8281-1.7031-12.465-2.8984-20.227-3.3516 9.8945-10.129 19.719-20.207 29.484-30.242zm68.137-155.38c14.445-14.383 28.883-28.758 43.324-43.105l6.8164 14.52c0.42969 0.91016 1.3398 1.4492 2.2773 1.4492 0.26172 0 0.51953-0.089844 0.77734-0.17188-15.516 15.516-31.031 31.035-46.543 46.551-1.6562-6.6641-3.8945-13.09-6.6523-19.242zm9.9336 49.492c6.0977-6.0117 12.184-12.051 18.27-18.094 1.1289 5.2305 3.5469 10.184 7.1094 14.699-9.6914 9.8008-19.348 19.613-28.969 29.418 2.1641-8.3398 3.3789-17.059 3.5898-26.023zm44.102 11.57c4.7188 2.4727 9.9219 4.5586 15.512 6.1719-43.352 43.203-86.262 86.77-128.41 129.72-4.7344-2.6836-9.8633-5.168-15.809-7.1445 42.895-42.887 85.859-85.863 128.7-128.75zm3.6758-3.6836c23.609-23.629 47.16-47.219 70.645-70.738 1.5781 6.1328 2.8555 12.383 3.9609 18.691-19.625 19.09-39.18 38.406-58.684 57.812-5.7578-1.4453-11.102-3.3945-15.922-5.7656zm-2.3633-1.1992c-6.0273-3.2539-11.133-7.1797-14.957-11.613 26.766-27.035 53.777-53.949 80.98-80.34 2.3477 6.418 4.3828 12.984 6.1914 19.637-24 24.051-48.082 48.164-72.215 72.316zm-16.504-13.625c-3.5938-4.7578-5.7617-10-6.2031-15.539 27.207-27.039 54.254-54.336 80.734-81.863 2.5352 5.4062 4.8672 10.918 6.9961 16.535-27.395 26.559-54.582 53.652-81.527 80.867zm-6.6211-18.684c-0.39844-0.86328-1.2656-1.4727-2.2734-1.4727-1.3867 0-2.5195 1.1289-2.5195 2.5195 0 1.1602 0.13672 2.2969 0.26563 3.4414-5.9062 5.8594-11.805 11.715-17.715 17.547-0.058594-8.1523-0.98438-16.102-2.6719-23.77 32.012-32.023 64.051-64.035 96.047-96.066 3.1602 5.4141 6.1602 10.934 8.8984 16.609-26.242 27.297-53.051 54.367-80.031 81.191zm22.578-52.789c0.17578-0.57422 0.16797-1.2148-0.10547-1.8047l-7.582-16.152c15.008-14.914 29.996-29.789 44.969-44.633 3.5078 4.9766 6.8516 10.078 9.9844 15.32-15.754 15.758-31.508 31.512-47.266 47.27zm-8.8086-20.34-7.7656-16.539 41.641-41.641c3.75 4.4805 7.3086 9.1094 10.73 13.855-14.84 14.703-29.73 29.543-44.605 44.324zm-3.793 3.7617c-14.438 14.359-28.859 28.652-43.312 43.039-2.5391-5.3164-5.4727-10.41-8.7656-15.234l44.324-44.332zm-53.566 25.727c-3.4453-4.8164-7.2461-9.3555-11.371-13.578l48.074-48.074 7.9688 16.977zm-13.148-15.352c-4.2617-4.1719-8.8477-7.9961-13.715-11.465 18.078-18.168 36.215-36.32 54.359-54.438l8.0664 17.184zm-32.305-22.266c21.199-21.16 42.473-42.234 63.762-63.219l8.0547 17.156c-18.465 18.43-36.914 36.895-55.309 55.379-5.207-3.5469-10.734-6.6562-16.508-9.3164zm76.746-47.41c10.496-10.469 20.992-20.945 31.484-31.348 4.5039 3.8477 8.8867 7.8359 13.098 11.996l-36.52 36.527zm-1.1367-2.4258-8.0391-17.125c8.2383-8.1055 16.465-16.254 24.703-24.305 4.8125 3.457 9.5117 7.0586 14.047 10.852-10.227 10.148-20.477 20.367-30.711 30.578zm-9.2227-19.492c-0.67578-1.043-1.9883-1.4805-3.1523-0.94141-1.2578 0.58984-1.7969 2.0898-1.2031 3.3516l0.60547 1.2852c-21.734 21.418-43.449 42.93-65.094 64.527-5.7227-2.4727-11.68-4.4883-17.828-6.0117 31.805-31.805 63.605-63.625 95.422-95.422 5.1484 3.0742 10.16 6.3516 15.055 9.793-7.9375 7.7539-15.867 15.609-23.805 23.418zm-89.57 61.539c-7.2734-1.5977-14.809-2.5-22.523-2.6367 13.113-13.184 26.27-26.379 39.441-39.562 2.6797 1.3242 5.6641 2.1406 8.8555 2.1406 11.113 0 20.152-9.0391 20.152-20.152 0-3.1758-0.80078-6.1406-2.1172-8.8164 11.945-11.906 23.895-23.832 35.836-35.645l-0.34375-0.34766c5.7227 2.75 11.289 5.7734 16.758 8.957-32.031 32.016-64.039 64.047-96.059 96.062zm16.637-72.164c2.543-1.9531 5.6914-3.1602 9.1406-3.1602 5.6172 0 10.473 3.1172 13.078 7.6797-6.8555 6.8359-13.703 13.637-20.551 20.488-4.5469-2.6094-7.6445-7.4492-7.6445-13.051 0-3.6719 1.3672-6.9961 3.5508-9.6172 0.80859-0.77734 1.6133-1.5586 2.4258-2.3398zm24.25 11.957c0 8.332-6.7812 15.113-15.113 15.113-1.7773 0-3.4609-0.36328-5.043-0.93359 6.4141-6.4141 12.82-12.781 19.242-19.184 0.55859 1.5781 0.91406 3.2383 0.91406 5.0039zm-26.277 16.754c-13.582 13.598-27.156 27.207-40.672 40.797-11.723 0.14453-23.023 2.0547-33.656 5.4883 21.664-21.637 43.5-43.172 65.488-64.508-0.035156 0.49609-0.14844 0.96484-0.14844 1.4688 0 6.9883 3.5781 13.137 8.9883 16.754zm27.945-27.875c-3.6133-5.4375-9.7734-9.0352-16.781-9.0352-0.25 0-0.48438 0.066407-0.73047 0.074219 11.547-11.082 23.129-22.105 34.758-33.031 5.9609 2.2383 11.801 4.7148 17.523 7.4062-11.582 11.465-23.176 23.035-34.77 34.586zm-229.86 203.54c17.594-17.984 35.383-36.133 53.234-54.305-3.3008 10.594-5.0898 21.84-5.1445 33.488-34.027 34.316-68.52 69.016-102.85 103.25-2.8672-6.0391-5.5-12.219-7.875-18.523 20.918-21.262 41.773-42.578 62.637-63.906zm48.152-17.293c0.19141 7.3945 1.0742 14.617 2.6094 21.602-32.012 32.016-64.043 64.016-96.047 96.043-2.9492-5.0625-5.7148-10.246-8.2969-15.531 33.953-33.84 68.066-68.164 101.73-102.11zm3.2812 24.496c1.5703 6.3594 3.6719 12.5 6.2617 18.395-30.207 30.492-61.078 61.621-91.691 92.316-3.5078-4.9766-6.8281-10.086-9.9609-15.332 31.785-31.805 63.594-63.582 95.391-95.379zm1.6836-27.488c0-60.422 49.156-109.58 109.58-109.58s109.58 49.156 109.58 109.58-49.156 109.58-109.58 109.58-109.58-49.156-109.58-109.58zm27.703 80.094-78.297 78.293c-0.94531-0.59766-1.8906-1.2031-2.8398-1.8086-3.8398-2.4531-7.7578-4.9336-11.992-7.2461 27.402-27.281 54.852-54.805 82.145-82.266 3.3398 4.6133 7.0078 8.9688 10.984 13.027zm-79.766 83.324c4.9766 3.125 10.195 6.168 16.238 8.7109l-10.637 10.637c-4.4727-3.8281-8.8164-7.8008-13.004-11.941zm18.773 9.7344c5.5977 2.1367 11.93 3.8203 19.406 4.7617-5.6836 5.7188-11.387 11.441-17.059 17.148-4.6719-3.375-9.1914-6.957-13.602-10.652zm22.605 5.1094c3.3359 0.31641 6.8672 0.49219 10.676 0.49219 5.793 0 10.973-0.40234 15.703-1.0977-9.6562 9.6562-19.312 19.32-28.969 28.973-5.3242-3.1797-10.52-6.543-15.566-10.117 6.0391-6.0742 12.113-12.164 18.156-18.25zm30.68-1.3398c15.766-3.0898 26.094-9.668 36.145-16.102 2.5078-1.6016 4.9883-3.1875 7.5273-4.7148-20.164 19.816-40.301 39.746-60.18 59.723-4.9531-2.4453-9.7852-5.082-14.535-7.8555 10.344-10.34 20.691-20.699 31.043-31.051zm51.793-25.258c9.3242-4.5391 20.398-7.7891 36.52-7.957-26.867 27.484-54.047 55.102-81.27 82.23-7.2188-2.6445-14.246-5.6797-21.125-8.9844 21.758-21.848 43.816-43.648 65.875-65.289zm40.023-7.9375c8.1133 0.14453 14.934 1.0898 20.887 2.5859-28.691 28.688-57.355 57.328-85.895 85.84-5.793-1.5703-11.516-3.3047-17.125-5.2969 27.52-27.434 54.988-55.355 82.133-83.129zm23.691 3.3398c6.1055 1.793 11.316 4.1719 16.168 6.8516-4.6133 4.707-9.3008 9.4609-13.891 14.148-22.633 23.07-45.262 46.145-67.953 69.156-6.8477-1.1484-13.578-2.6094-20.219-4.3164 28.551-28.516 57.203-57.148 85.895-85.84zm4.0742 22.762c4.7461-4.8398 9.582-9.7656 14.359-14.621 3.0781 1.793 6.0547 3.6875 9.0625 5.6133 2.9531 1.8906 5.9414 3.7891 9.0703 5.6133-24.781 24.688-49.57 49.316-74.328 73.789-8.3984-0.40625-16.672-1.2852-24.824-2.5391 22.254-22.59 44.457-45.219 66.66-67.855zm26.137-13.25c-2.6602-1.7031-5.3516-3.4219-8.1406-5.0781 42.336-43.141 85.438-86.906 128.99-130.29 7.8242 1.9961 16.281 3.1289 25.16 3.1289 1.3867 0 2.5195-1.1328 2.5195-2.5195s-1.1328-2.5195-2.5195-2.5195c-7.3594 0-14.41-0.8125-21.016-2.2422 18.727-18.625 37.504-37.152 56.336-55.48 1.375 8.5586 2.3438 17.254 2.793 26.086-57.414 58.293-115.7 116.89-174.09 175.09-3.4336-1.9648-6.7109-4.0547-10.031-6.1797zm126.68-312.68-41.121 41.125-7.9688-16.977 37.168-37.16c4.1328 4.1758 8.0938 8.5312 11.922 13.012zm-174.66-84.262c-18.129 17.938-36.266 35.969-54.402 54.059-37.484 10.637-64.816 36.859-67.973 68.164-42.352 42.707-84.488 85.617-126.13 128.45-0.14062-3.4219-0.22266-6.8594-0.22266-10.312 0-4.9375 0.19531-9.8281 0.49219-14.695 24.453-24.535 49.066-49.203 73.727-73.91 2.4336 0.75391 4.9688 1.2812 7.6484 1.2812 14.355 0 26.031-11.68 26.031-26.031 0-2.6953-0.52734-5.2461-1.2891-7.6875 39.68-39.727 79.441-79.492 119-119.01 4.9531-0.30859 9.9297-0.51562 14.965-0.51562 2.7344 0 5.4453 0.11719 8.1602 0.20703zm-232.15 152.77c30.926-31.035 62.215-62.676 92.488-93.289 13.945-14.098 27.887-28.199 41.84-42.285 11.613-4.6836 23.668-8.4727 36.094-11.309-9.543 10-19.074 20.016-28.598 30.039-21.34 22.449-43.012 45.211-64.988 67.883-3.4961-1.75-7.3867-2.8281-11.551-2.8281-14.355 0-26.031 11.68-26.031 26.031 0 4.3477 1.1758 8.3867 3.0625 11.992-17.773 17.875-35.762 35.543-53.973 52.801 2.7734-13.465 6.7305-26.488 11.656-39.035zm86.281-25.762c0 11.578-9.4219 20.992-20.992 20.992-1.2109 0-2.3828-0.16016-3.5352-0.35937 8.0547-8.0703 16.102-16.133 24.168-24.207 0.19922 1.168 0.35938 2.3516 0.35938 3.5742zm-27.359 19.902c-4.9375-1.5859-9.0547-4.9141-11.652-9.3008 9.4766-9.5625 18.879-19.184 28.238-28.824 4.5664 2.5703 8.0312 6.7617 9.668 11.824-8.7617 8.7773-17.508 17.535-26.254 26.301zm-14.629-19.902c0-11.574 9.4219-20.992 20.992-20.992 2.793 0 5.4453 0.57031 7.8828 1.5664-9.0039 9.2656-18.047 18.52-27.156 27.715-1.0977-2.543-1.7188-5.3477-1.7188-8.2891zm34.844-21.957c21.816-22.512 43.328-45.109 64.512-67.395 10.402-10.941 20.809-21.887 31.234-32.805 9.8789-2.0547 19.996-3.4453 30.277-4.2461-38.578 38.535-77.336 77.305-116.02 116.04-2.0938-4.8047-5.6133-8.8164-10-11.594zm-91.551 90.961c18.906-17.855 37.559-36.172 55.988-54.703 2.7773 4.1953 6.7227 7.5469 11.383 9.5742-23.664 23.711-47.277 47.375-70.75 70.926 0.66797-8.7344 1.7969-17.344 3.3789-25.797zm140.73-176.32c-12.543 12.664-25.086 25.34-37.613 38.016-28.934 29.258-58.785 59.434-88.359 89.141 24.074-56.844 69.414-102.54 125.97-127.16zm-99.547 360.97c30.496-30.57 61.227-61.574 91.332-91.957 2.7266 5.8281 5.918 11.402 9.5508 16.652-27.574 27.75-55.305 55.539-82.988 83.102-5.0195-2.5703-10.543-4.8555-17.004-6.5234-0.30078-0.41406-0.58984-0.84766-0.89062-1.2734zm14.105 11.582c-0.93359 0.93359-1.8672 1.8672-2.8008 2.7969-1.7383-2.0625-3.5117-4.1016-5.1797-6.2227 2.8477 1.0156 5.457 2.1875 7.9805 3.4258zm172.75 88.445c24.359-24.078 48.742-48.305 73.121-72.594 4.6953 2.6094 9.7891 4.9883 15.688 6.8672-21.887 21.891-43.746 43.746-65.52 65.496-4.9375 0.30859-9.9141 0.48047-14.93 0.48047-2.8047-0.003906-5.5742-0.14844-8.3594-0.25zm100.8-18.305c16.012-16.02 32.039-32.023 48.062-48.02 10.004-3.4609 17.699-8.3594 25.227-13.18 7.332-4.6914 14.379-9.1523 23.383-12.379-25.262 32.098-58.5 57.605-96.672 73.578zm101.89-80.445c-13.113 3.3945-22.379 9.2891-31.328 15.008-4.1797 2.6758-8.2969 5.3047-12.746 7.668 23.922-23.859 47.797-47.641 71.578-71.285-7.2969 17.32-16.555 33.613-27.504 48.609z"></path>

      </g>
      </svg>